<?xml version="1.0" encoding="iso-8859-1"?>
<!-- Generator: Adobe Illustrator 19.0.0, SVG Export Plug-In . SVG Version: 6.00 Build 0)  -->
<svg version="1.1" id="Layer_1" xmlns="http://www.w3.org/2000/svg" xmlns:xlink="http://www.w3.org/1999/xlink" x="0px" y="0px"
	 viewBox="0 0 309.142 309.142" style="enable-background:new 0 0 309.142 309.142;" xml:space="preserve">
<g>
	<path style="fill:#005CB9;" d="M154.571,0C69.662,0,0.83,68.831,0.83,153.741c0,38.283,13.997,73.295,37.147,100.207
		c-6.953,19.986-19.807,37.209-36.479,49.581c10.592,3.619,21.938,5.613,33.757,5.613c20.214,0,39.082-5.751,55.067-15.698
		c19.551,9.007,41.312,14.039,64.249,14.039c84.909,0,153.741-68.833,153.741-153.742C308.313,68.831,239.48,0,154.571,0z"/>
	<path style="fill:#FFFFFF;" d="M81.472,218.377h32.718V105.032H81.472V218.377z M191.737,105.032c-3.504,0-6.791,0.092-9.926,0.245
		c3.359-7.043,4.597-19.895,4.597-27.76c0-7.04-6.105-12.748-13.635-12.748c-6.591,0-12.089,4.372-13.359,10.183
		c-1.847,6.729-7.044,30.111-23.721,38.439c-3.657,0.924-7.316,1.797-11.122,2.551v89.523c14.735,4.818,22.731,12.912,53.898,12.912
		c44.368,0,53.068-34.304,53.068-56.673C231.538,139.336,236.105,105.032,191.737,105.032z"/>
</g>
<g>
</g>
<g>
</g>
<g>
</g>
<g>
</g>
<g>
</g>
<g>
</g>
<g>
</g>
<g>
</g>
<g>
</g>
<g>
</g>
<g>
</g>
<g>
</g>
<g>
</g>
<g>
</g>
<g>
</g>
</svg>
